<svg width="85" height="85" viewBox="0 0 85 85" fill="none" xmlns="http://www.w3.org/2000/svg">
<path fill-rule="evenodd" clip-rule="evenodd" d="M85 19.8368V5.63826C84.9993 5.4254 84.9429 5.21644 84.8364 5.03217C84.7299 4.8479 84.5769 4.69476 84.3928 4.588C84.2086 4.48124 83.9997 4.42459 83.7869 4.42368C83.574 4.42278 83.3646 4.47765 83.1796 4.58284L73.8296 9.92367C73.4572 10.137 73.1478 10.4449 72.9326 10.8161C72.7175 11.1874 72.6042 11.6089 72.6042 12.038V26.2366C72.6042 27.1716 73.6135 27.7595 74.4246 27.292L83.7746 21.9512C84.1475 21.7376 84.4572 21.4291 84.6724 21.0572C84.8876 20.6852 85.0006 20.2665 85 19.8368ZM1.82396 4.58638L28.8929 20.1095C29.2616 20.3207 29.6792 20.4319 30.1042 20.4319C30.5291 20.4319 30.9467 20.3207 31.3154 20.1095L58.3844 4.58638C58.5695 4.48032 58.7793 4.42473 58.9926 4.4252C59.206 4.42566 59.4155 4.48214 59.6002 4.58901C59.7849 4.69587 59.9382 4.84936 60.045 5.03412C60.1517 5.21888 60.208 5.42843 60.2083 5.6418V48.248C60.2083 49.0803 59.7833 49.8524 59.0785 50.3022L42.6098 60.7608L53.6244 67.2491C54.4035 67.7095 55.3775 67.6989 56.1496 67.2172L72.4767 57.0243C72.6516 56.9144 72.7957 56.7618 72.8955 56.5809C72.9952 56.4 73.0473 56.1967 73.0469 55.9901V41.5224C73.0469 40.6228 73.5427 39.8012 74.329 39.3762L83.2079 34.6091C83.3934 34.5101 83.6014 34.4607 83.8116 34.4659C84.0219 34.4711 84.2272 34.5306 84.4076 34.6386C84.588 34.7466 84.7374 34.8995 84.8412 35.0824C84.945 35.2653 84.9997 35.4719 85 35.6822V62.3545C85 63.2187 84.5396 64.0191 83.7958 64.4547L56.0504 80.718C55.668 80.9419 55.2318 81.0572 54.7887 81.0516C54.3456 81.046 53.9125 80.9196 53.5358 80.6862L32.4523 67.6493C32.2755 67.5399 32.1297 67.3872 32.0287 67.2055C31.9276 67.0239 31.8747 66.8194 31.875 66.6116V53.7766C31.875 53.3693 32.0769 52.9903 32.4169 52.7637L46.7252 43.2224C47.0592 43.0003 47.3331 42.6992 47.5228 42.3458C47.7125 41.9924 47.812 41.5977 47.8125 41.1966V25.6487C47.8124 25.5627 47.7894 25.4783 47.746 25.4041C47.7025 25.3298 47.6401 25.2685 47.5652 25.2264C47.4902 25.1842 47.4054 25.1627 47.3194 25.1641C47.2334 25.1655 47.1494 25.1897 47.0758 25.2343L31.3508 34.6693C30.974 34.8956 30.5429 35.0157 30.1034 35.017C29.6638 35.0182 29.2321 34.9005 28.854 34.6764L12.9094 25.2272C12.8354 25.1837 12.7512 25.1604 12.6654 25.1597C12.5795 25.159 12.495 25.1809 12.4203 25.2233C12.3456 25.2657 12.2834 25.327 12.2399 25.401C12.1965 25.4751 12.1733 25.5593 12.1727 25.6451V53.7412C12.1724 53.9563 12.1151 54.1674 12.0067 54.3532C11.8983 54.539 11.7426 54.6927 11.5555 54.7988C11.3685 54.905 11.1566 54.9597 10.9416 54.9574C10.7265 54.9552 10.5158 54.896 10.331 54.786L1.77083 49.6505C0.672917 48.9918 0 47.8018 0 46.5197V5.6418C0 4.7068 1.01292 4.11888 1.82396 4.58638Z" fill="#0073E6"/>
</svg>
